<mxfile host="app.diagrams.net" agent="Mozilla/5.0 (Windows NT 10.0; Win64; x64) AppleWebKit/537.36 (KHTML, like Gecko) Chrome/131.0.0.0 Safari/537.36" version="26.0.4">
  <diagram name="PÃ¡gina-1" id="8IQzPBXdbKtcRwzt8P5M">
    <mxGraphModel>
      <root>
        <mxCell id="0" />
        <mxCell id="1" parent="0" />
        <mxCell id="2" value="Roles" style="whiteSpace=wrap;strokeWidth=2;verticalAlign=top;" vertex="1" parent="1">
          <mxGeometry x="8" y="8" width="2747" height="281" as="geometry" />
        </mxCell>
        <mxCell id="3" value="Role 1" style="fillColor=none;strokeColor=none;" vertex="1" parent="2">
          <mxGeometry x="44" y="46" width="104" height="54" as="geometry" />
        </mxCell>
        <mxCell id="4" value="User 1" style="fillColor=none;strokeColor=none;" vertex="1" parent="2">
          <mxGeometry x="43" y="198" width="105" height="54" as="geometry" />
        </mxCell>
        <mxCell id="5" value="Role 2" style="fillColor=none;strokeColor=none;" vertex="1" parent="2">
          <mxGeometry x="199" y="46" width="104" height="54" as="geometry" />
        </mxCell>
        <mxCell id="6" value="User 2" style="fillColor=none;strokeColor=none;" vertex="1" parent="2">
          <mxGeometry x="198" y="198" width="105" height="54" as="geometry" />
        </mxCell>
        <mxCell id="7" value="Role 3" style="fillColor=none;strokeColor=none;" vertex="1" parent="2">
          <mxGeometry x="354" y="46" width="104" height="54" as="geometry" />
        </mxCell>
        <mxCell id="8" value="User 3" style="fillColor=none;strokeColor=none;" vertex="1" parent="2">
          <mxGeometry x="353" y="198" width="105" height="54" as="geometry" />
        </mxCell>
        <mxCell id="9" value="Role 4" style="fillColor=none;strokeColor=none;" vertex="1" parent="2">
          <mxGeometry x="509" y="46" width="104" height="54" as="geometry" />
        </mxCell>
        <mxCell id="10" value="User 4" style="fillColor=none;strokeColor=none;" vertex="1" parent="2">
          <mxGeometry x="508" y="198" width="105" height="54" as="geometry" />
        </mxCell>
        <mxCell id="11" value="Role 5" style="fillColor=none;strokeColor=none;" vertex="1" parent="2">
          <mxGeometry x="664" y="46" width="104" height="54" as="geometry" />
        </mxCell>
        <mxCell id="12" value="User 5" style="fillColor=none;strokeColor=none;" vertex="1" parent="2">
          <mxGeometry x="663" y="198" width="105" height="54" as="geometry" />
        </mxCell>
        <mxCell id="13" value="Role 6" style="fillColor=none;strokeColor=none;" vertex="1" parent="2">
          <mxGeometry x="819" y="46" width="104" height="54" as="geometry" />
        </mxCell>
        <mxCell id="14" value="User 6" style="fillColor=none;strokeColor=none;" vertex="1" parent="2">
          <mxGeometry x="818" y="198" width="105" height="54" as="geometry" />
        </mxCell>
        <mxCell id="15" value="Role 7" style="fillColor=none;strokeColor=none;" vertex="1" parent="2">
          <mxGeometry x="974" y="46" width="104" height="54" as="geometry" />
        </mxCell>
        <mxCell id="16" value="User 7" style="fillColor=none;strokeColor=none;" vertex="1" parent="2">
          <mxGeometry x="973" y="198" width="105" height="54" as="geometry" />
        </mxCell>
        <mxCell id="17" value="Role 8" style="fillColor=none;strokeColor=none;" vertex="1" parent="2">
          <mxGeometry x="1129" y="46" width="104" height="54" as="geometry" />
        </mxCell>
        <mxCell id="18" value="User 8" style="fillColor=none;strokeColor=none;" vertex="1" parent="2">
          <mxGeometry x="1128" y="198" width="105" height="54" as="geometry" />
        </mxCell>
        <mxCell id="19" value="Role 9" style="fillColor=none;strokeColor=none;" vertex="1" parent="2">
          <mxGeometry x="1284" y="46" width="104" height="54" as="geometry" />
        </mxCell>
        <mxCell id="20" value="User 9" style="fillColor=none;strokeColor=none;" vertex="1" parent="2">
          <mxGeometry x="1283" y="198" width="105" height="54" as="geometry" />
        </mxCell>
        <mxCell id="21" value="Role 10" style="fillColor=none;strokeColor=none;" vertex="1" parent="2">
          <mxGeometry x="1439" y="46" width="112" height="54" as="geometry" />
        </mxCell>
        <mxCell id="22" value="User 10" style="fillColor=none;strokeColor=none;" vertex="1" parent="2">
          <mxGeometry x="1438" y="198" width="113" height="54" as="geometry" />
        </mxCell>
        <mxCell id="23" value="Role 11" style="fillColor=none;strokeColor=none;" vertex="1" parent="2">
          <mxGeometry x="1602" y="46" width="112" height="54" as="geometry" />
        </mxCell>
        <mxCell id="24" value="User 11" style="fillColor=none;strokeColor=none;" vertex="1" parent="2">
          <mxGeometry x="1602" y="198" width="113" height="54" as="geometry" />
        </mxCell>
        <mxCell id="25" value="Role 12" style="fillColor=none;strokeColor=none;" vertex="1" parent="2">
          <mxGeometry x="1766" y="46" width="112" height="54" as="geometry" />
        </mxCell>
        <mxCell id="26" value="User 12" style="fillColor=none;strokeColor=none;" vertex="1" parent="2">
          <mxGeometry x="1765" y="198" width="113" height="54" as="geometry" />
        </mxCell>
        <mxCell id="27" value="Role 13" style="fillColor=none;strokeColor=none;" vertex="1" parent="2">
          <mxGeometry x="1929" y="46" width="112" height="54" as="geometry" />
        </mxCell>
        <mxCell id="28" value="User 13" style="fillColor=none;strokeColor=none;" vertex="1" parent="2">
          <mxGeometry x="1928" y="198" width="113" height="54" as="geometry" />
        </mxCell>
        <mxCell id="29" value="Role 14" style="fillColor=none;strokeColor=none;" vertex="1" parent="2">
          <mxGeometry x="2092" y="46" width="112" height="54" as="geometry" />
        </mxCell>
        <mxCell id="30" value="User 14" style="fillColor=none;strokeColor=none;" vertex="1" parent="2">
          <mxGeometry x="2092" y="198" width="113" height="54" as="geometry" />
        </mxCell>
        <mxCell id="31" value="Role 15" style="fillColor=none;strokeColor=none;" vertex="1" parent="2">
          <mxGeometry x="2256" y="46" width="112" height="54" as="geometry" />
        </mxCell>
        <mxCell id="32" value="User 15" style="fillColor=none;strokeColor=none;" vertex="1" parent="2">
          <mxGeometry x="2255" y="198" width="113" height="54" as="geometry" />
        </mxCell>
        <mxCell id="33" value="Role 16" style="fillColor=none;strokeColor=none;" vertex="1" parent="2">
          <mxGeometry x="2419" y="46" width="112" height="54" as="geometry" />
        </mxCell>
        <mxCell id="34" value="User 16" style="fillColor=none;strokeColor=none;" vertex="1" parent="2">
          <mxGeometry x="2419" y="198" width="113" height="54" as="geometry" />
        </mxCell>
        <mxCell id="35" value="Role 17" style="fillColor=none;strokeColor=none;" vertex="1" parent="2">
          <mxGeometry x="2583" y="46" width="112" height="54" as="geometry" />
        </mxCell>
        <mxCell id="36" value="User 17" style="fillColor=none;strokeColor=none;" vertex="1" parent="2">
          <mxGeometry x="2582" y="198" width="113" height="54" as="geometry" />
        </mxCell>
        <mxCell id="37" value="" style="curved=1;startArrow=circle;startFill=0;endArrow=circle;endFill=0;exitX=0.38;exitY=0.99;entryX=0.39;entryY=-0.01;" edge="1" parent="2" source="3" target="4">
          <mxGeometry relative="1" as="geometry">
            <Array as="points">
              <mxPoint x="62" y="149" />
            </Array>
          </mxGeometry>
        </mxCell>
        <mxCell id="38" value="" style="curved=1;startArrow=circle;startFill=0;endArrow=circle;endFill=0;exitX=0.34;exitY=0.99;entryX=0.35;entryY=-0.01;" edge="1" parent="2" source="5" target="6">
          <mxGeometry relative="1" as="geometry">
            <Array as="points">
              <mxPoint x="206" y="149" />
            </Array>
          </mxGeometry>
        </mxCell>
        <mxCell id="39" value="" style="curved=1;startArrow=circle;startFill=0;endArrow=circle;endFill=0;exitX=0.34;exitY=0.99;entryX=0.35;entryY=-0.01;" edge="1" parent="2" source="7" target="8">
          <mxGeometry relative="1" as="geometry">
            <Array as="points">
              <mxPoint x="361" y="149" />
            </Array>
          </mxGeometry>
        </mxCell>
        <mxCell id="40" value="" style="curved=1;startArrow=circle;startFill=0;endArrow=circle;endFill=0;exitX=0.34;exitY=0.99;entryX=0.35;entryY=-0.01;" edge="1" parent="2" source="9" target="10">
          <mxGeometry relative="1" as="geometry">
            <Array as="points">
              <mxPoint x="516" y="149" />
            </Array>
          </mxGeometry>
        </mxCell>
        <mxCell id="41" value="" style="curved=1;startArrow=circle;startFill=0;endArrow=circle;endFill=0;exitX=0.34;exitY=0.99;entryX=0.35;entryY=-0.01;" edge="1" parent="2" source="11" target="12">
          <mxGeometry relative="1" as="geometry">
            <Array as="points">
              <mxPoint x="671" y="149" />
            </Array>
          </mxGeometry>
        </mxCell>
        <mxCell id="42" value="" style="curved=1;startArrow=circle;startFill=0;endArrow=circle;endFill=0;exitX=0.34;exitY=0.99;entryX=0.35;entryY=-0.01;" edge="1" parent="2" source="13" target="14">
          <mxGeometry relative="1" as="geometry">
            <Array as="points">
              <mxPoint x="826" y="149" />
            </Array>
          </mxGeometry>
        </mxCell>
        <mxCell id="43" value="" style="curved=1;startArrow=circle;startFill=0;endArrow=circle;endFill=0;exitX=0.34;exitY=0.99;entryX=0.35;entryY=-0.01;" edge="1" parent="2" source="15" target="16">
          <mxGeometry relative="1" as="geometry">
            <Array as="points">
              <mxPoint x="981" y="149" />
            </Array>
          </mxGeometry>
        </mxCell>
        <mxCell id="44" value="" style="curved=1;startArrow=circle;startFill=0;endArrow=circle;endFill=0;exitX=0.34;exitY=0.99;entryX=0.35;entryY=-0.01;" edge="1" parent="2" source="17" target="18">
          <mxGeometry relative="1" as="geometry">
            <Array as="points">
              <mxPoint x="1136" y="149" />
            </Array>
          </mxGeometry>
        </mxCell>
        <mxCell id="45" value="" style="curved=1;startArrow=circle;startFill=0;endArrow=circle;endFill=0;exitX=0.34;exitY=0.99;entryX=0.35;entryY=-0.01;" edge="1" parent="2" source="19" target="20">
          <mxGeometry relative="1" as="geometry">
            <Array as="points">
              <mxPoint x="1291" y="149" />
            </Array>
          </mxGeometry>
        </mxCell>
        <mxCell id="46" value="" style="curved=1;startArrow=circle;startFill=0;endArrow=circle;endFill=0;exitX=0.35;exitY=0.99;entryX=0.36;entryY=-0.01;" edge="1" parent="2" source="21" target="22">
          <mxGeometry relative="1" as="geometry">
            <Array as="points">
              <mxPoint x="1448" y="149" />
            </Array>
          </mxGeometry>
        </mxCell>
        <mxCell id="47" value="" style="curved=1;startArrow=circle;startFill=0;endArrow=circle;endFill=0;exitX=0.35;exitY=0.99;entryX=0.35;entryY=-0.01;" edge="1" parent="2" source="23" target="24">
          <mxGeometry relative="1" as="geometry">
            <Array as="points">
              <mxPoint x="1612" y="149" />
            </Array>
          </mxGeometry>
        </mxCell>
        <mxCell id="48" value="" style="curved=1;startArrow=circle;startFill=0;endArrow=circle;endFill=0;exitX=0.35;exitY=0.99;entryX=0.35;entryY=-0.01;" edge="1" parent="2" source="25" target="26">
          <mxGeometry relative="1" as="geometry">
            <Array as="points">
              <mxPoint x="1775" y="149" />
            </Array>
          </mxGeometry>
        </mxCell>
        <mxCell id="49" value="" style="curved=1;startArrow=circle;startFill=0;endArrow=circle;endFill=0;exitX=0.35;exitY=0.99;entryX=0.36;entryY=-0.01;" edge="1" parent="2" source="27" target="28">
          <mxGeometry relative="1" as="geometry">
            <Array as="points">
              <mxPoint x="1938" y="149" />
            </Array>
          </mxGeometry>
        </mxCell>
        <mxCell id="50" value="" style="curved=1;startArrow=circle;startFill=0;endArrow=circle;endFill=0;exitX=0.36;exitY=0.99;entryX=0.35;entryY=-0.01;" edge="1" parent="2" source="29" target="30">
          <mxGeometry relative="1" as="geometry">
            <Array as="points">
              <mxPoint x="2102" y="149" />
            </Array>
          </mxGeometry>
        </mxCell>
        <mxCell id="51" value="" style="curved=1;startArrow=circle;startFill=0;endArrow=circle;endFill=0;exitX=0.35;exitY=0.99;entryX=0.36;entryY=-0.01;" edge="1" parent="2" source="31" target="32">
          <mxGeometry relative="1" as="geometry">
            <Array as="points">
              <mxPoint x="2265" y="149" />
            </Array>
          </mxGeometry>
        </mxCell>
        <mxCell id="52" value="" style="curved=1;startArrow=circle;startFill=0;endArrow=circle;endFill=0;exitX=0.35;exitY=0.99;entryX=0.35;entryY=-0.01;" edge="1" parent="2" source="33" target="34">
          <mxGeometry relative="1" as="geometry">
            <Array as="points">
              <mxPoint x="2429" y="149" />
            </Array>
          </mxGeometry>
        </mxCell>
        <mxCell id="53" value="" style="curved=1;startArrow=circle;startFill=0;endArrow=circle;endFill=0;exitX=0.35;exitY=0.99;entryX=0.36;entryY=-0.01;" edge="1" parent="2" source="35" target="36">
          <mxGeometry relative="1" as="geometry">
            <Array as="points">
              <mxPoint x="2592" y="149" />
            </Array>
          </mxGeometry>
        </mxCell>
        <mxCell id="54" value="Holds Role 1" style="curved=1;startArrow=none;endArrow=block;exitX=0.65;exitY=-0.01;entryX=0.65;entryY=0.99;" edge="1" parent="2" source="4" target="3">
          <mxGeometry relative="1" as="geometry">
            <Array as="points">
              <mxPoint x="140" y="149" />
            </Array>
          </mxGeometry>
        </mxCell>
        <mxCell id="55" value="Holds Role 2" style="curved=1;startArrow=none;endArrow=block;exitX=0.65;exitY=-0.01;entryX=0.65;entryY=0.99;" edge="1" parent="2" source="6" target="5">
          <mxGeometry relative="1" as="geometry">
            <Array as="points">
              <mxPoint x="295" y="149" />
            </Array>
          </mxGeometry>
        </mxCell>
        <mxCell id="56" value="Holds Role 3" style="curved=1;startArrow=none;endArrow=block;exitX=0.65;exitY=-0.01;entryX=0.65;entryY=0.99;" edge="1" parent="2" source="8" target="7">
          <mxGeometry relative="1" as="geometry">
            <Array as="points">
              <mxPoint x="450" y="149" />
            </Array>
          </mxGeometry>
        </mxCell>
        <mxCell id="57" value="Holds Role 4" style="curved=1;startArrow=none;endArrow=block;exitX=0.65;exitY=-0.01;entryX=0.65;entryY=0.99;" edge="1" parent="2" source="10" target="9">
          <mxGeometry relative="1" as="geometry">
            <Array as="points">
              <mxPoint x="605" y="149" />
            </Array>
          </mxGeometry>
        </mxCell>
        <mxCell id="58" value="Holds Role 5" style="curved=1;startArrow=none;endArrow=block;exitX=0.65;exitY=-0.01;entryX=0.65;entryY=0.99;" edge="1" parent="2" source="12" target="11">
          <mxGeometry relative="1" as="geometry">
            <Array as="points">
              <mxPoint x="760" y="149" />
            </Array>
          </mxGeometry>
        </mxCell>
        <mxCell id="59" value="Holds Role 6" style="curved=1;startArrow=none;endArrow=block;exitX=0.65;exitY=-0.01;entryX=0.65;entryY=0.99;" edge="1" parent="2" source="14" target="13">
          <mxGeometry relative="1" as="geometry">
            <Array as="points">
              <mxPoint x="915" y="149" />
            </Array>
          </mxGeometry>
        </mxCell>
        <mxCell id="60" value="Holds Role 7" style="curved=1;startArrow=none;endArrow=block;exitX=0.65;exitY=-0.01;entryX=0.65;entryY=0.99;" edge="1" parent="2" source="16" target="15">
          <mxGeometry relative="1" as="geometry">
            <Array as="points">
              <mxPoint x="1070" y="149" />
            </Array>
          </mxGeometry>
        </mxCell>
        <mxCell id="61" value="Holds Role 8" style="curved=1;startArrow=none;endArrow=block;exitX=0.65;exitY=-0.01;entryX=0.65;entryY=0.99;" edge="1" parent="2" source="18" target="17">
          <mxGeometry relative="1" as="geometry">
            <Array as="points">
              <mxPoint x="1225" y="149" />
            </Array>
          </mxGeometry>
        </mxCell>
        <mxCell id="62" value="Holds Role 9" style="curved=1;startArrow=none;endArrow=block;exitX=0.66;exitY=-0.01;entryX=0.66;entryY=0.99;" edge="1" parent="2" source="20" target="19">
          <mxGeometry relative="1" as="geometry">
            <Array as="points">
              <mxPoint x="1382" y="149" />
            </Array>
          </mxGeometry>
        </mxCell>
        <mxCell id="63" value="Holds Role 10" style="curved=1;startArrow=none;endArrow=block;exitX=0.65;exitY=-0.01;entryX=0.65;entryY=0.99;" edge="1" parent="2" source="22" target="21">
          <mxGeometry relative="1" as="geometry">
            <Array as="points">
              <mxPoint x="1541" y="149" />
            </Array>
          </mxGeometry>
        </mxCell>
        <mxCell id="64" value="Holds Role 11" style="curved=1;startArrow=none;endArrow=block;exitX=0.64;exitY=-0.01;entryX=0.65;entryY=0.99;" edge="1" parent="2" source="24" target="23">
          <mxGeometry relative="1" as="geometry">
            <Array as="points">
              <mxPoint x="1705" y="149" />
            </Array>
          </mxGeometry>
        </mxCell>
        <mxCell id="65" value="Holds Role 12" style="curved=1;startArrow=none;endArrow=block;exitX=0.65;exitY=-0.01;entryX=0.64;entryY=0.99;" edge="1" parent="2" source="26" target="25">
          <mxGeometry relative="1" as="geometry">
            <Array as="points">
              <mxPoint x="1868" y="149" />
            </Array>
          </mxGeometry>
        </mxCell>
        <mxCell id="66" value="Holds Role 13" style="curved=1;startArrow=none;endArrow=block;exitX=0.65;exitY=-0.01;entryX=0.65;entryY=0.99;" edge="1" parent="2" source="28" target="27">
          <mxGeometry relative="1" as="geometry">
            <Array as="points">
              <mxPoint x="2032" y="149" />
            </Array>
          </mxGeometry>
        </mxCell>
        <mxCell id="67" value="Holds Role 14" style="curved=1;startArrow=none;endArrow=block;exitX=0.65;exitY=-0.01;entryX=0.65;entryY=0.99;" edge="1" parent="2" source="30" target="29">
          <mxGeometry relative="1" as="geometry">
            <Array as="points">
              <mxPoint x="2195" y="149" />
            </Array>
          </mxGeometry>
        </mxCell>
        <mxCell id="68" value="Holds Role 15" style="curved=1;startArrow=none;endArrow=block;exitX=0.65;exitY=-0.01;entryX=0.65;entryY=0.99;" edge="1" parent="2" source="32" target="31">
          <mxGeometry relative="1" as="geometry">
            <Array as="points">
              <mxPoint x="2359" y="149" />
            </Array>
          </mxGeometry>
        </mxCell>
        <mxCell id="69" value="Holds Role 16" style="curved=1;startArrow=none;endArrow=block;exitX=0.64;exitY=-0.01;entryX=0.65;entryY=0.99;" edge="1" parent="2" source="34" target="33">
          <mxGeometry relative="1" as="geometry">
            <Array as="points">
              <mxPoint x="2522" y="149" />
            </Array>
          </mxGeometry>
        </mxCell>
        <mxCell id="70" value="Holds Role 17" style="curved=1;startArrow=none;endArrow=block;exitX=0.61;exitY=-0.01;entryX=0.61;entryY=0.99;" edge="1" parent="2" source="36" target="35">
          <mxGeometry relative="1" as="geometry">
            <Array as="points">
              <mxPoint x="2674" y="149" />
            </Array>
          </mxGeometry>
        </mxCell>
        <mxCell id="71" value="U1-U17" style="fillColor=none;strokeColor=none;" vertex="1" parent="1" overrideArrowHead="circle">
          <mxGeometry x="1326" y="339" width="112" height="54" as="geometry" />
        </mxCell>
        <mxCell id="72" value="A-Q" style="fillColor=none;strokeColor=none;" vertex="1" parent="1" overrideArrowHead="circle">
          <mxGeometry x="1338" y="443" width="86" height="54" as="geometry" />
        </mxCell>
      </root>
    </mxGraphModel>
  </diagram>
</mxfile>
